# AST/ASF file generated using VICON BodyLanguage
# -----------------------------------------------
:version 1.10
:name VICON
:units
  mass 1.0
  length 0.45
  angle deg
:documentation
   .ast/.asf automatically generated from VICON data using
   VICON BodyBuilder and BodyLanguage model FoxedUp or BRILLIANT.MOD
:root
   order TX TY TZ RX RY RZ
   axis XYZ
   position 0 0 0  
   orientation 0 0 0 
:bonedata
  begin
     id 1 
     name lhipjoint
     direction 0.541323 -0.757556 0.364798 
     length 2.47576 
     axis 0 0 0  XYZ
  end
  begin
     id 2 
     name lfemur
     direction 0.34202 -0.939693 0  
     length 7.46493  
     axis 0 0 20  XYZ
    dof rx ry rz
    limits (-160.0 20.0)
           (-70.0 70.0)
           (-60.0 70.0)
  end
  begin
     id 3 
     name ltibia
     direction 0.34202 -0.939693 0   
     length 7.73805   
     axis 0 0 20   XYZ
    dof rx
    limits (-10.0 170.0)
  end
  begin
     id 4 
     name lfoot
     direction 0.107174 -0.294458 0.949636   
     length 2.25864   
     axis -90 7.62852e-016 20   XYZ
    dof rx rz
    limits (-45.0 90.0)
           (-70.0 20.0)
  end
  begin
     id 5 
     name ltoes
     direction 1.53606e-011 -4.21934e-011 1   
     length 1.12451   
     axis -90 7.62852e-016 20   XYZ
    dof rx
    limits (-90.0 20.0)
  end
  begin
     id 6 
     name rhipjoint
     direction -0.524745 -0.766967 0.36933   
     length 2.44538  
     axis 0 0 0  XYZ 
  end
  begin
     id 7 
     name rfemur
     direction -0.34202 -0.939693 0   
     length 7.61604   
     axis 0 0 -20   XYZ
    dof rx ry rz
    limits (-160.0 20.0)
           (-70.0 70.0)
           (-70.0 60.0)
  end
  begin
     id 8 
     name rtibia
     direction -0.34202 -0.939693 0   
     length 7.61056   
     axis 0 0 -20   XYZ
    dof rx
    limits (-10.0 170.0)
 end
 begin
     id 9 
     name rfoot
     direction -0.12616 -0.346623 0.929482   
     length 2.46372  
     axis -90 -7.62852e-016 -20   XYZ
    dof rx rz
    limits (-45.0 90.0)
           (-20.0 70.0)
  end
  begin
     id 10 
     name rtoes
     direction -1.53531e-011 -4.22004e-011 1   
     length 1.21611   
     axis -90 -7.62852e-016 -20   XYZ
    dof rx
    limits (-90.0 20.0)
  end
  begin
     id 11 
     name lowerback
     direction -0.000778023 0.997293 -0.0735223   
     length 2.06139   
     axis 0 0 0   XYZ
    dof rx ry rz
    limits (-20.0 45.0)
           (-30.0 30.0)
           (-30.0 30.0)
  end
  begin
     id 12 
     name upperback
     direction 0.0222598 0.999722 -0.0078355   
     length 2.06383   
     axis 0 0 0   XYZ
    dof rx ry rz
    limits (-20.0 45.0)
           (-30.0 30.0)
           (-30.0 30.0)
  end
  begin
     id 13 
     name thorax
     direction 0.0219654 0.999405 0.0265994   
     length 2.07163   
     axis 0 0 0   XYZ
    dof rx ry rz
    limits (-20.0 45.0)
           (-30.0 30.0)
           (-30.0 30.0)
  end
  begin
     id 14 
     name lowerneck
     direction 0.0213282 0.988147 0.15202   
     length 1.75969   
     axis 0 0 0   XYZ
    dof rx ry rz
    limits (-20.0 45.0)
           (-30.0 30.0)
           (-30.0 30.0)
  end
  begin
     id 15 
     name upperneck
     direction -0.0546456 0.982624 -0.177379   
     length 1.79244   
     axis 0 0 0   XYZ
    dof rx ry rz
    limits (-20.0 45.0)
           (-30.0 30.0)
           (-30.0 30.0)
  end
  begin
     id 16
     name head
     direction -0.0199987 0.996855 -0.076686  
     length 1.80555  
     axis 0 0 0   XYZ
    dof rx ry rz
    limits (-20.0 45.0)
           (-30.0 30.0)
           (-30.0 30.0)
  end
  begin
     id 17 
     name lclavicle
     direction 0.929565 0.363219 -0.063096  
     length 3.55722  
     axis 0 0 0   XYZ
    dof ry rz
    limits (-20.0 10.0)
           (0.0 20.0)
  end
  begin
     id 18 
     name lhumerus
     direction 1 -4.48993e-011 -2.36203e-027   
     length 4.92785   
     axis 180 -30 -90   XYZ
    dof rx ry rz
    limits (-60.0 90.0)
           (-90.0 90.0)
           (-90.0 90.0)
  end
  begin
     id 19
     name lradius
     direction 1 -4.48947e-011 2.02997e-027   
     length 3.44052   
     axis 180 -30 -90   XYZ
    dof rx
    limits (-10.0 170.0)
  end
  begin
     id 20
     name lwrist
     direction 1 -4.48962e-011 1.45991e-027   
     length 1.72026   
     axis 1.49639e-024 90 90   XYZ
    dof ry
    limits (-180.0 0.0)
 end
  begin
     id 21 
     name lhand
     direction 1 -4.48984e-011 2.91906e-027   
     length 0.654326   
     axis -1.863e-015 90 90   XYZ
    dof rx rz
    limits (-90.0 90.0)
           (-45.0 45.0)
  end
  begin
     id 22 
     name lfingers
     direction 1 -4.48961e-011 5.83968e-027   
     length 0.527534   
     axis -3.72598e-015 90 90   XYZ
    dof rx
    limits (0.0 90.0)
  end
  begin
     id 23
     name lthumb
     direction 0.707107 -6.34963e-011 0.707107   
     length 0.757437   
     axis -90 45 -6.68868e-015   XYZ
    dof rx rz
    limits (-45.0 45.0)
           (-45.0 45.0)
  end
  begin
     id 24 
     name rclavicle
     direction -0.902944 0.422599 -0.0781198   
     length 3.54432  
     axis 0 0 0   XYZ 
    dof ry rz
    limits (-10.0 20.0)
           (-20.0 0.0)
  end
  begin
     id 25 
     name rhumerus
     direction -1 -4.48953e-011 -4.75835e-028  
     length 5.09181   
     axis 180 30 90   XYZ
    dof rx ry rz
    limits (-90.0 60.0)
           (-90.0 90.0)
           (-90.0 90.0)
  end
  begin
     id 26 
     name rradius
     direction -1 -4.48986e-011 -3.25889e-027   
     length 3.49865   
     axis 180 30 90   XYZ
    dof rx
    limits (-10.0 170.0)
  end
  begin
     id 27 
     name rwrist
     direction -1 -4.48963e-011 1.45989e-027   
     length 1.74933   
     axis 1.49639e-024 -90 -90   XYZ
    dof ry
    limits (-180.0 0.0)
  end
  begin
     id 28
     name rhand
     direction -1 -4.49003e-011 2.91844e-027   
     length 0.66641   
     axis -1.863e-015 -90 -90   XYZ
    dof rx rz
    limits (-90.0 90.0)
           (-45.0 45.0)
  end
  begin
     id 29
     name rfingers
     direction -1 -4.48973e-011 5.83886e-027   
     length 0.537277   
     axis -3.72598e-015 -90 -90   XYZ
    dof rx
    limits (0.0 90.0)
  end
  begin
     id 30
     name rthumb
     direction -0.707107 -6.34976e-011 0.707107   
     length 0.771425   
     axis -90 -45 6.68868e-015   XYZ
    dof rx rz
    limits (-45.0 45.0)
           (-45.0 45.0)
  end
:hierarchy
  begin
    root lhipjoint rhipjoint lowerback
    lhipjoint lfemur
    lfemur ltibia
    ltibia lfoot
    lfoot ltoes
    rhipjoint rfemur
    rfemur rtibia
    rtibia rfoot
    rfoot rtoes
    lowerback upperback
    upperback thorax
    thorax lowerneck lclavicle rclavicle
    lowerneck upperneck
    upperneck head
    lclavicle lhumerus
    lhumerus lradius
    lradius lwrist
    lwrist lhand lthumb
    lhand lfingers
    rclavicle rhumerus
    rhumerus rradius
    rradius rwrist
    rwrist rhand rthumb
    rhand rfingers
  end

#!OML:ASF H:\LiuWeirdWalks\Patient Classification 1\Patient 1\Session 1\male.ASF
:FULLY-SPECIFIED
:DEGREES
40
root 0.203799 17.9944 -30.1621 2.03811 28.844 1.2449
lowerback 2.69533 8.47395 -0.242782
upperback -1.2191 11.3455 1.52604
thorax -3.10441 5.67769 1.06218
lowerneck 10.7623 15.5293 27.5898
upperneck 4.95889 25.3605 -22.6515
head 6.29721 13.301 -9.69172
rclavicle -1.90585e-014 -3.18055e-015
rhumerus -41.6437 -23.4085 -62.1878
rradius 19.302
rwrist 1.4794
rhand -16.5301 -3.8901
rfingers 7.12502
rthumb 9.68874 -33.6473
lclavicle -1.90585e-014 -3.18055e-015
lhumerus -33.4486 1.39995 82.8474
lradius 30.1227
lwrist 9.84013
lhand -12.3608 0.201228
lfingers 7.12502
lthumb 13.7093 29.7296
rfemur -0.998548 -9.67645 17.208
rtibia 24.771
rfoot -15.9206 -33.0815
rtoes -0.572956
lfemur -8.80311 -9.87243 -18.5869
ltibia 22.7943
lfoot -10.7654 1.80543
ltoes -33.8097
41
root 0.208263 17.9945 -30.1676 2.02286 28.6527 1.22822
lowerback 2.71316 8.45289 -0.218048
upperback -1.20733 11.3182 1.528
thorax -3.09699 5.66349 1.05146
lowerneck 10.6569 15.5646 27.5379
upperneck 5.10344 25.3959 -22.6013
head 6.35372 13.3111 -9.64853
rclavicle -9.93923e-017 -2.38542e-015
rhumerus -41.8329 -23.5063 -61.9272
rradius 19.3833
rwrist 1.30224
rhand -16.4747 -4.04146
rfingers 7.12502
rthumb 9.74223 -33.7961
lclavicle -9.93923e-017 -2.38542e-015
lhumerus -33.473 1.27103 82.9542
lradius 30.124
lwrist 9.85849
lhand -12.297 0.175628
lfingers 7.12502
lthumb 13.7708 29.6999
rfemur -1.03372 -9.62263 17.1789
rtibia 24.7831
rfoot -15.8522 -32.9535
rtoes -0.623497
lfemur -8.777 -9.78496 -18.599
ltibia 22.7878
lfoot -10.766 1.89836
ltoes -33.7716
42
root 0.212616 17.9948 -30.1736 2.01381 28.4527 1.20674
lowerback 2.73018 8.42815 -0.182191
upperback -1.20073 11.2864 1.52794
thorax -3.09182 5.64682 1.03297
lowerneck 10.5819 15.6024 27.4702
upperneck 5.21273 25.4352 -22.5546
head 6.39382 13.3245 -9.60733
rclavicle -1.18997e-013 -6.36111e-015
rhumerus -42.0132 -23.5472 -61.7226
rradius 19.4912
rwrist 1.15166
rhand -16.4494 -4.16696
rfingers 7.12502
rthumb 9.76655 -33.9205
lclavicle -1.18997e-013 -6.36111e-015
lhumerus -33.4962 1.1844 83.04
lradius 30.0957
lwrist 9.84422
lhand -12.2176 0.126845
lfingers 7.12502
lthumb 13.8473 29.6459
rfemur -1.08271 -9.56537 17.1556
rtibia 24.7982
rfoot -15.7838 -32.8192
rtoes -0.671693
lfemur -8.76096 -9.70027 -18.6052
ltibia 22.7804
lfoot -10.7609 2.00192
ltoes -33.7091
43
root 0.217066 17.9953 -30.1798 2.01348 28.25 1.19196
lowerback 2.73928 8.39494 -0.153371
upperback -1.19915 11.2433 1.53377
thorax -3.08973 5.62482 1.02539
lowerneck 10.5281 15.6414 27.3736
upperneck 5.32287 25.4791 -22.5049
head 6.42761 13.3412 -9.5631
rclavicle 1.74781e-013 1.98785e-014
rhumerus -42.1705 -23.5284 -61.5533
rradius 19.5995
rwrist 1.01911
rhand -16.4462 -4.261
rfingers 7.12502
rthumb 9.76971 -34.0144
lclavicle 1.74781e-013 1.98785e-014
lhumerus -33.5333 1.13844 83.1227
lradius 30.0465
lwrist 9.811
lhand -12.127 0.0521276
lfingers 7.12502
lthumb 13.9346 29.5652
rfemur -1.13937 -9.51291 17.1247
rtibia 24.8161
rfoot -15.7183 -32.6765
rtoes -0.715971
lfemur -8.74996 -9.61693 -18.6179
ltibia 22.7716
lfoot -10.7523 2.10961
ltoes -33.5231
44
root 0.221541 17.996 -30.1862 2.00979 28.0381 1.16405
lowerback 2.74908 8.36304 -0.115665
upperback -1.19977 11.2026 1.54501
thorax -3.08982 5.60388 1.01814
lowerneck 10.4976 15.6888 27.2493
upperneck 5.37745 25.527 -22.4497
head 6.43673 13.3602 -9.51578
rclavicle 6.2965e-014 -2.38542e-015
rhumerus -42.3025 -23.466 -61.4231
rradius 19.7127
rwrist 0.89584
rhand -16.4695 -4.29577
rfingers 7.12502
rthumb 9.74723 -34.0502
lclavicle 6.2965e-014 -2.38542e-015
lhumerus -33.5627 1.12809 83.2008
lradius 29.9663
lwrist 9.74924
lhand -12.027 -0.0422318
lfingers 7.12502
lthumb 14.031 29.4642
rfemur -1.20148 -9.45085 17.108
rtibia 24.8332
rfoot -15.6496 -32.5351
rtoes -0.762241
lfemur -8.7418 -9.53864 -18.618
ltibia 22.7644
lfoot -10.7406 2.23085
ltoes -33.3212
45
root 0.22614 17.9968 -30.1925 2.00696 27.8216 1.13207
lowerback 2.75036 8.3316 -0.0826321
upperback -1.20067 11.1625 1.56326
thorax -3.08782 5.5835 1.02151
lowerneck 10.4509 15.7465 27.093
upperneck 5.44228 25.5802 -22.3683
head 6.44456 13.3799 -9.45305
rclavicle -1.16078e-013 7.15625e-015
rhumerus -42.406 -23.3833 -61.309
rradius 19.8223
rwrist 0.783949
rhand -16.5073 -4.30664
rfingers 7.12502
rthumb 9.71074 -34.0628
lclavicle -1.16078e-013 7.15625e-015
lhumerus -33.5879 1.14983 83.2789
lradius 29.8569
lwrist 9.6647
lhand -11.9251 -0.135497
lfingers 7.12502
lthumb 14.1292 29.3641
rfemur -1.26648 -9.38347 17.0963
rtibia 24.8483
rfoot -15.5805 -32.395
rtoes -0.806676
lfemur -8.73594 -9.45862 -18.6137
ltibia 22.7588
lfoot -10.729 2.35447
ltoes -33.1195
46
root 0.230774 17.9975 -30.1986 1.99879 27.6063 1.09636
lowerback 2.75004 8.30485 -0.0548341
upperback -1.19782 11.1286 1.58818
thorax -3.08354 5.56641 1.03441
lowerneck 10.4238 15.7833 26.9869
upperneck 5.49248 25.6126 -22.3003
head 6.4481 13.3917 -9.40751
rclavicle -3.35449e-016 4.77083e-015
rhumerus -42.4989 -23.2792 -61.215
rradius 19.965
rwrist 0.622501
rhand -16.5365 -4.33962
rfingers 7.12502
rthumb 9.6826 -34.0971
lclavicle -3.35449e-016 4.77083e-015
lhumerus -33.6102 1.17075 83.3678
lradius 29.7322
lwrist 9.56927
lhand -11.8125 -0.242216
lfingers 7.12502
lthumb 14.2377 29.2498
rfemur -1.32485 -9.3151 17.0885
rtibia 24.8583
rfoot -15.5134 -32.2582
rtoes -0.853016
lfemur -8.7258 -9.38267 -18.6065
ltibia 22.7563
lfoot -10.7186 2.48138
ltoes -32.9818
47
root 0.235171 17.9983 -30.2049 1.98871 27.3829 1.05609
lowerback 2.7522 8.28721 -0.0318654
upperback -1.19502 11.1068 1.61716
thorax -3.08277 5.55551 1.05263
lowerneck 10.4139 15.7963 26.9363
upperneck 5.51666 25.6205 -22.2611
head 6.44641 13.3938 -9.38555
rclavicle 8.57259e-015 -4.77083e-015
rhumerus -42.568 -23.1799 -61.1253
rradius 20.1038
rwrist 0.46207
rhand -16.5664 -4.37271
rfingers 7.12502
rthumb 9.65373 -34.1315
lclavicle 8.57259e-015 -4.77083e-015
lhumerus -33.6361 1.16757 83.472
lradius 29.604
lwrist 9.49411
lhand -11.73 -0.318735
lfingers 7.12502
lthumb 14.3171 29.1676
rfemur -1.3849 -9.23513 17.0875
rtibia 24.8647
rfoot -15.4466 -32.1264
rtoes -0.895939
lfemur -8.71593 -9.30346 -18.5935
ltibia 22.7543
lfoot -10.7076 2.61351
ltoes -32.9492
48
root 0.238859 17.9987 -30.2103 1.9651 27.1802 1.01349
lowerback 2.75378 8.2682 -0.0246683
upperback -1.1874 11.0828 1.65362
thorax -3.08107 5.54389 1.08705
lowerneck 10.4553 15.7723 26.9694
upperneck 5.49385 25.5966 -22.2757
head 6.43325 13.3855 -9.40414
rclavicle -1.15929e-013 -1.90833e-014
rhumerus -42.6219 -23.0771 -61.0474
rradius 20.2553
rwrist 0.271199
rhand -16.5934 -4.43016
rfingers 7.12502
rthumb 9.62768 -34.1902
lclavicle -1.15929e-013 -1.90833e-014
lhumerus -33.6611 1.16011 83.5787
lradius 29.4613
lwrist 9.42569
lhand -11.6828 -0.355857
lfingers 7.12502
lthumb 14.3626 29.1273
rfemur -1.42313 -9.1483 17.096
rtibia 24.8686
rfoot -15.3991 -32.0198
rtoes -0.92741
lfemur -8.69105 -9.22074 -18.5742
ltibia 22.7508
lfoot -10.7017 2.72236
ltoes -33.0194
49
root 0.242008 17.9989 -30.2155 1.93573 26.99 0.975609
lowerback 2.75958 8.24688 -0.0327002
upperback -1.17823 11.0554 1.69559
thorax -3.08396 5.53091 1.13445
lowerneck 10.6944 15.6839 27.1696
upperneck 5.27091 25.5388 -22.4679
head 6.36705 13.377 -9.53193
rclavicle 1.2275e-014 -3.18055e-015
rhumerus -42.6536 -22.9719 -60.9748
rradius 20.3933
rwrist 0.0717573
rhand -16.6101 -4.48917
rfingers 7.12502
rthumb 9.61158 -34.2499
lclavicle 1.2275e-014 -3.18055e-015
lhumerus -33.7001 1.14922 83.6892
lradius 29.3189
lwrist 9.35753
lhand -11.6714 -0.364622
lfingers 7.12502
lthumb 14.3736 29.1177
rfemur -1.44993 -9.05714 17.1041
rtibia 24.8746
rfoot -15.3638 -31.9269
rtoes -0.953381
lfemur -8.65536 -9.13634 -18.5575
ltibia 22.7414
lfoot -10.695 2.81914
ltoes -33.1242
50
root 0.244771 17.9989 -30.2203 1.90475 26.8168 0.944482
lowerback 2.76862 8.22327 -0.0509509
upperback -1.17162 11.0246 1.73639
thorax -3.09284 5.51642 1.18541
lowerneck 10.9282 15.5858 27.3722
upperneck 5.05701 25.468 -22.6538
head 6.30049 13.362 -9.66051
rclavicle -5.18331e-014 -7.95139e-015
rhumerus -42.692 -22.8726 -60.9085
rradius 20.5385
rwrist -0.126279
rhand -16.6172 -4.52139
rfingers 7.12502
rthumb 9.60465 -34.2825
lclavicle -5.18331e-014 -7.95139e-015
lhumerus -33.7411 1.13808 83.7966
lradius 29.1609
lwrist 9.2899
lhand -11.7013 -0.318836
lfingers 7.12502
lthumb 14.3449 29.1656
rfemur -1.47005 -8.9696 17.1086
rtibia 24.8862
rfoot -15.3432 -31.8449
rtoes -0.973863
lfemur -8.61188 -9.05044 -18.5449
ltibia 22.723
lfoot -10.6853 2.89629
ltoes -33.2736
